<mxfile host="app.diagrams.net" agent="Mozilla/5.0 (X11; Linux x86_64; rv:129.0) Gecko/20100101 Firefox/129.0" version="24.7.7">
  <diagram name="Page-1" id="T--bDFZihbW74El8pYaS">
    <mxGraphModel dx="3112" dy="1801" grid="1" gridSize="10" guides="1" tooltips="1" connect="1" arrows="1" fold="1" page="0" pageScale="1" pageWidth="850" pageHeight="1100" math="0" shadow="0">
      <root>
        <mxCell id="0" />
        <mxCell id="1" parent="0" />
        <mxCell id="7mthSx3CE8CJNTc02Vdj-50" value="Decrição" style="ellipse;whiteSpace=wrap;html=1;align=center;shadow=0;strokeWidth=3;fontSize=14;" vertex="1" parent="1">
          <mxGeometry x="-410" y="-160" width="100" height="40" as="geometry" />
        </mxCell>
        <mxCell id="7mthSx3CE8CJNTc02Vdj-47" style="edgeStyle=orthogonalEdgeStyle;rounded=1;orthogonalLoop=1;jettySize=auto;html=1;entryX=1;entryY=0.5;entryDx=0;entryDy=0;endArrow=none;endFill=0;curved=0;shadow=0;strokeWidth=3;fontSize=14;" edge="1" parent="1" source="7mthSx3CE8CJNTc02Vdj-48" target="7mthSx3CE8CJNTc02Vdj-50">
          <mxGeometry relative="1" as="geometry" />
        </mxCell>
        <mxCell id="7mthSx3CE8CJNTc02Vdj-65" value="N" style="edgeStyle=orthogonalEdgeStyle;rounded=0;orthogonalLoop=1;jettySize=auto;html=1;entryX=1;entryY=0.5;entryDx=0;entryDy=0;endArrow=none;endFill=0;strokeWidth=3;fontSize=18;" edge="1" parent="1" source="7mthSx3CE8CJNTc02Vdj-48" target="7mthSx3CE8CJNTc02Vdj-63">
          <mxGeometry relative="1" as="geometry" />
        </mxCell>
        <mxCell id="7mthSx3CE8CJNTc02Vdj-48" value="Prédio" style="rounded=1;arcSize=10;whiteSpace=wrap;html=1;align=center;shadow=0;strokeWidth=3;fontSize=14;" vertex="1" parent="1">
          <mxGeometry x="-340" y="-40" width="100" height="40" as="geometry" />
        </mxCell>
        <mxCell id="7mthSx3CE8CJNTc02Vdj-46" style="edgeStyle=orthogonalEdgeStyle;rounded=1;orthogonalLoop=1;jettySize=auto;html=1;entryX=1;entryY=0.5;entryDx=0;entryDy=0;endArrow=none;endFill=0;curved=0;shadow=0;strokeWidth=3;fontSize=14;" edge="1" parent="1" source="7mthSx3CE8CJNTc02Vdj-48" target="7mthSx3CE8CJNTc02Vdj-49">
          <mxGeometry relative="1" as="geometry" />
        </mxCell>
        <mxCell id="7mthSx3CE8CJNTc02Vdj-49" value="Nome" style="ellipse;whiteSpace=wrap;html=1;align=center;shadow=0;strokeWidth=3;fontSize=14;" vertex="1" parent="1">
          <mxGeometry x="-410" y="-120" width="100" height="40" as="geometry" />
        </mxCell>
        <mxCell id="7mthSx3CE8CJNTc02Vdj-27" style="edgeStyle=orthogonalEdgeStyle;rounded=1;orthogonalLoop=1;jettySize=auto;html=1;entryX=1;entryY=0.5;entryDx=0;entryDy=0;endArrow=none;endFill=0;curved=0;shadow=0;strokeWidth=3;fontSize=14;" edge="1" parent="1" source="7mthSx3CE8CJNTc02Vdj-3" target="7mthSx3CE8CJNTc02Vdj-18">
          <mxGeometry relative="1" as="geometry" />
        </mxCell>
        <mxCell id="7mthSx3CE8CJNTc02Vdj-28" style="edgeStyle=orthogonalEdgeStyle;rounded=1;orthogonalLoop=1;jettySize=auto;html=1;entryX=1;entryY=0.5;entryDx=0;entryDy=0;endArrow=none;endFill=0;curved=0;shadow=0;strokeWidth=3;fontSize=14;" edge="1" parent="1" source="7mthSx3CE8CJNTc02Vdj-3" target="7mthSx3CE8CJNTc02Vdj-19">
          <mxGeometry relative="1" as="geometry" />
        </mxCell>
        <mxCell id="7mthSx3CE8CJNTc02Vdj-85" value="1" style="edgeStyle=orthogonalEdgeStyle;rounded=0;orthogonalLoop=1;jettySize=auto;html=1;entryX=0;entryY=0.5;entryDx=0;entryDy=0;strokeWidth=3;endArrow=none;endFill=0;fontSize=18;" edge="1" parent="1" source="7mthSx3CE8CJNTc02Vdj-3" target="7mthSx3CE8CJNTc02Vdj-84">
          <mxGeometry relative="1" as="geometry" />
        </mxCell>
        <mxCell id="7mthSx3CE8CJNTc02Vdj-95" value="1" style="edgeStyle=orthogonalEdgeStyle;rounded=0;orthogonalLoop=1;jettySize=auto;html=1;entryX=0;entryY=0.5;entryDx=0;entryDy=0;strokeWidth=3;endArrow=none;endFill=0;exitX=0.5;exitY=1;exitDx=0;exitDy=0;fontSize=18;" edge="1" parent="1" source="7mthSx3CE8CJNTc02Vdj-3" target="7mthSx3CE8CJNTc02Vdj-104">
          <mxGeometry x="0.389" relative="1" as="geometry">
            <mxPoint x="-1" as="offset" />
          </mxGeometry>
        </mxCell>
        <mxCell id="7mthSx3CE8CJNTc02Vdj-3" value="Departamento" style="rounded=1;arcSize=10;whiteSpace=wrap;html=1;align=center;shadow=0;strokeWidth=3;container=0;fontSize=14;" vertex="1" parent="1">
          <mxGeometry x="-740" y="280" width="100" height="40" as="geometry" />
        </mxCell>
        <mxCell id="7mthSx3CE8CJNTc02Vdj-18" value="Nome" style="ellipse;whiteSpace=wrap;html=1;align=center;shadow=0;strokeWidth=3;container=0;fontSize=14;" vertex="1" parent="1">
          <mxGeometry x="-900" y="260" width="100" height="40" as="geometry" />
        </mxCell>
        <mxCell id="7mthSx3CE8CJNTc02Vdj-19" value="Decrição" style="ellipse;whiteSpace=wrap;html=1;align=center;shadow=0;strokeWidth=3;container=0;fontSize=14;" vertex="1" parent="1">
          <mxGeometry x="-900" y="300" width="100" height="40" as="geometry" />
        </mxCell>
        <mxCell id="7mthSx3CE8CJNTc02Vdj-5" value="Patrimônio" style="rounded=1;arcSize=10;whiteSpace=wrap;html=1;align=center;shadow=0;strokeWidth=3;container=0;fontSize=14;" vertex="1" parent="1">
          <mxGeometry x="70" y="-340" width="100" height="40" as="geometry" />
        </mxCell>
        <mxCell id="7mthSx3CE8CJNTc02Vdj-35" style="edgeStyle=orthogonalEdgeStyle;rounded=1;orthogonalLoop=1;jettySize=auto;html=1;entryX=0.5;entryY=0;entryDx=0;entryDy=0;endArrow=none;endFill=0;curved=0;shadow=0;strokeWidth=3;fontSize=14;" edge="1" parent="1" source="7mthSx3CE8CJNTc02Vdj-20" target="7mthSx3CE8CJNTc02Vdj-5">
          <mxGeometry relative="1" as="geometry" />
        </mxCell>
        <mxCell id="7mthSx3CE8CJNTc02Vdj-20" value="&lt;div style=&quot;font-size: 14px;&quot;&gt;Número&lt;/div&gt;" style="ellipse;whiteSpace=wrap;html=1;align=center;shadow=0;strokeWidth=3;container=0;fontSize=14;" vertex="1" parent="1">
          <mxGeometry x="-40" y="-450" width="100" height="40" as="geometry" />
        </mxCell>
        <mxCell id="7mthSx3CE8CJNTc02Vdj-36" style="edgeStyle=orthogonalEdgeStyle;rounded=1;orthogonalLoop=1;jettySize=auto;html=1;endArrow=none;endFill=0;curved=0;shadow=0;strokeWidth=3;entryX=0.5;entryY=0;entryDx=0;entryDy=0;fontSize=14;" edge="1" parent="1" source="7mthSx3CE8CJNTc02Vdj-21" target="7mthSx3CE8CJNTc02Vdj-5">
          <mxGeometry relative="1" as="geometry">
            <mxPoint x="70" y="-320" as="targetPoint" />
          </mxGeometry>
        </mxCell>
        <mxCell id="7mthSx3CE8CJNTc02Vdj-21" value="Descrição" style="ellipse;whiteSpace=wrap;html=1;align=center;shadow=0;strokeWidth=3;container=0;fontSize=14;" vertex="1" parent="1">
          <mxGeometry x="-40" y="-410" width="100" height="40" as="geometry" />
        </mxCell>
        <mxCell id="7mthSx3CE8CJNTc02Vdj-98" value="1" style="edgeStyle=orthogonalEdgeStyle;rounded=0;orthogonalLoop=1;jettySize=auto;html=1;entryX=0;entryY=0.5;entryDx=0;entryDy=0;strokeWidth=3;endArrow=none;endFill=0;fontSize=18;" edge="1" parent="1" source="7mthSx3CE8CJNTc02Vdj-6" target="7mthSx3CE8CJNTc02Vdj-97">
          <mxGeometry relative="1" as="geometry" />
        </mxCell>
        <mxCell id="7mthSx3CE8CJNTc02Vdj-6" value="Coferência" style="rounded=1;arcSize=10;whiteSpace=wrap;html=1;align=center;shadow=0;strokeWidth=3;container=0;fontSize=14;" vertex="1" parent="1">
          <mxGeometry x="-90" y="480" width="100" height="40" as="geometry" />
        </mxCell>
        <mxCell id="7mthSx3CE8CJNTc02Vdj-34" style="edgeStyle=orthogonalEdgeStyle;rounded=1;orthogonalLoop=1;jettySize=auto;html=1;endArrow=none;endFill=0;curved=0;shadow=0;strokeWidth=3;fontSize=14;" edge="1" parent="1" source="7mthSx3CE8CJNTc02Vdj-26" target="7mthSx3CE8CJNTc02Vdj-6">
          <mxGeometry relative="1" as="geometry" />
        </mxCell>
        <mxCell id="7mthSx3CE8CJNTc02Vdj-26" value="&lt;div style=&quot;font-size: 14px;&quot;&gt;Data&lt;/div&gt;" style="ellipse;whiteSpace=wrap;html=1;align=center;shadow=0;strokeWidth=3;container=0;fontSize=14;" vertex="1" parent="1">
          <mxGeometry x="-90" y="570" width="100" height="40" as="geometry" />
        </mxCell>
        <mxCell id="7mthSx3CE8CJNTc02Vdj-29" style="edgeStyle=orthogonalEdgeStyle;rounded=1;orthogonalLoop=1;jettySize=auto;html=1;entryX=0;entryY=0.5;entryDx=0;entryDy=0;endArrow=none;endFill=0;curved=0;shadow=0;strokeWidth=3;fontSize=14;" edge="1" parent="1" source="7mthSx3CE8CJNTc02Vdj-4" target="7mthSx3CE8CJNTc02Vdj-22">
          <mxGeometry relative="1" as="geometry" />
        </mxCell>
        <mxCell id="7mthSx3CE8CJNTc02Vdj-30" style="edgeStyle=orthogonalEdgeStyle;rounded=1;orthogonalLoop=1;jettySize=auto;html=1;entryX=0;entryY=0.5;entryDx=0;entryDy=0;endArrow=none;endFill=0;curved=0;shadow=0;strokeWidth=3;fontSize=14;" edge="1" parent="1" source="7mthSx3CE8CJNTc02Vdj-4" target="7mthSx3CE8CJNTc02Vdj-23">
          <mxGeometry relative="1" as="geometry" />
        </mxCell>
        <mxCell id="7mthSx3CE8CJNTc02Vdj-31" style="edgeStyle=orthogonalEdgeStyle;rounded=1;orthogonalLoop=1;jettySize=auto;html=1;entryX=0;entryY=0.5;entryDx=0;entryDy=0;endArrow=none;endFill=0;curved=0;shadow=0;strokeWidth=3;fontSize=14;" edge="1" parent="1" source="7mthSx3CE8CJNTc02Vdj-4" target="7mthSx3CE8CJNTc02Vdj-24">
          <mxGeometry relative="1" as="geometry" />
        </mxCell>
        <mxCell id="7mthSx3CE8CJNTc02Vdj-32" style="edgeStyle=orthogonalEdgeStyle;rounded=1;orthogonalLoop=1;jettySize=auto;html=1;entryX=0;entryY=0.5;entryDx=0;entryDy=0;endArrow=none;endFill=0;curved=0;shadow=0;strokeWidth=3;fontSize=14;" edge="1" parent="1" source="7mthSx3CE8CJNTc02Vdj-4" target="7mthSx3CE8CJNTc02Vdj-25">
          <mxGeometry relative="1" as="geometry" />
        </mxCell>
        <mxCell id="7mthSx3CE8CJNTc02Vdj-102" value="N" style="edgeStyle=orthogonalEdgeStyle;rounded=0;orthogonalLoop=1;jettySize=auto;html=1;entryX=1;entryY=0.5;entryDx=0;entryDy=0;endArrow=none;endFill=0;strokeWidth=3;fontSize=18;" edge="1" parent="1" source="7mthSx3CE8CJNTc02Vdj-4" target="7mthSx3CE8CJNTc02Vdj-101">
          <mxGeometry relative="1" as="geometry">
            <mxPoint x="-30" y="420" as="targetPoint" />
            <Array as="points">
              <mxPoint x="-30" y="380" />
            </Array>
          </mxGeometry>
        </mxCell>
        <mxCell id="7mthSx3CE8CJNTc02Vdj-4" value="&lt;div style=&quot;font-size: 14px;&quot;&gt;Funcionário&lt;/div&gt;" style="rounded=1;arcSize=10;whiteSpace=wrap;html=1;align=center;shadow=0;strokeWidth=3;container=0;fontSize=14;" vertex="1" parent="1">
          <mxGeometry x="-80" y="280" width="100" height="40" as="geometry" />
        </mxCell>
        <mxCell id="7mthSx3CE8CJNTc02Vdj-22" value="Nome" style="ellipse;whiteSpace=wrap;html=1;align=center;shadow=0;strokeWidth=3;container=0;fontSize=14;" vertex="1" parent="1">
          <mxGeometry x="130" y="220" width="100" height="40" as="geometry" />
        </mxCell>
        <mxCell id="7mthSx3CE8CJNTc02Vdj-23" value="Email" style="ellipse;whiteSpace=wrap;html=1;align=center;shadow=0;strokeWidth=3;container=0;fontSize=14;" vertex="1" parent="1">
          <mxGeometry x="130" y="260" width="100" height="40" as="geometry" />
        </mxCell>
        <mxCell id="7mthSx3CE8CJNTc02Vdj-24" value="Cargo" style="ellipse;whiteSpace=wrap;html=1;align=center;shadow=0;strokeWidth=3;container=0;fontSize=14;" vertex="1" parent="1">
          <mxGeometry x="130" y="300" width="100" height="40" as="geometry" />
        </mxCell>
        <mxCell id="7mthSx3CE8CJNTc02Vdj-25" value="Funcao" style="ellipse;whiteSpace=wrap;html=1;align=center;shadow=0;strokeWidth=3;container=0;fontSize=14;" vertex="1" parent="1">
          <mxGeometry x="130" y="340" width="100" height="40" as="geometry" />
        </mxCell>
        <mxCell id="7mthSx3CE8CJNTc02Vdj-92" value="1" style="edgeStyle=orthogonalEdgeStyle;rounded=0;orthogonalLoop=1;jettySize=auto;html=1;entryX=0.5;entryY=1;entryDx=0;entryDy=0;strokeWidth=3;endArrow=none;endFill=0;fontSize=18;" edge="1" parent="1" source="7mthSx3CE8CJNTc02Vdj-2" target="7mthSx3CE8CJNTc02Vdj-91">
          <mxGeometry relative="1" as="geometry" />
        </mxCell>
        <mxCell id="7mthSx3CE8CJNTc02Vdj-2" value="Salas" style="rounded=1;arcSize=10;whiteSpace=wrap;html=1;align=center;shadow=0;strokeWidth=3;container=0;fontSize=14;" vertex="1" parent="1">
          <mxGeometry x="70" y="-40" width="100" height="40" as="geometry" />
        </mxCell>
        <mxCell id="7mthSx3CE8CJNTc02Vdj-14" style="edgeStyle=orthogonalEdgeStyle;rounded=1;orthogonalLoop=1;jettySize=auto;html=1;curved=0;endArrow=none;endFill=0;shadow=0;strokeWidth=3;fontSize=14;" edge="1" parent="1" source="7mthSx3CE8CJNTc02Vdj-11" target="7mthSx3CE8CJNTc02Vdj-2">
          <mxGeometry relative="1" as="geometry" />
        </mxCell>
        <mxCell id="7mthSx3CE8CJNTc02Vdj-11" value="&lt;div style=&quot;font-size: 14px;&quot;&gt;Nome&lt;/div&gt;" style="ellipse;whiteSpace=wrap;html=1;align=center;shadow=0;strokeWidth=3;container=0;fontSize=14;" vertex="1" parent="1">
          <mxGeometry x="230" y="-80" width="100" height="40" as="geometry" />
        </mxCell>
        <mxCell id="7mthSx3CE8CJNTc02Vdj-15" style="edgeStyle=orthogonalEdgeStyle;rounded=1;orthogonalLoop=1;jettySize=auto;html=1;curved=0;endArrow=none;endFill=0;shadow=0;strokeWidth=3;entryX=1;entryY=0.5;entryDx=0;entryDy=0;fontSize=14;" edge="1" parent="1" source="7mthSx3CE8CJNTc02Vdj-12" target="7mthSx3CE8CJNTc02Vdj-2">
          <mxGeometry relative="1" as="geometry">
            <mxPoint x="130" y="80" as="targetPoint" />
          </mxGeometry>
        </mxCell>
        <mxCell id="7mthSx3CE8CJNTc02Vdj-12" value="Número" style="ellipse;whiteSpace=wrap;html=1;align=center;shadow=0;strokeWidth=3;container=0;fontSize=14;" vertex="1" parent="1">
          <mxGeometry x="230" y="-40" width="100" height="40" as="geometry" />
        </mxCell>
        <mxCell id="7mthSx3CE8CJNTc02Vdj-16" style="edgeStyle=orthogonalEdgeStyle;rounded=1;orthogonalLoop=1;jettySize=auto;html=1;entryX=1;entryY=0.5;entryDx=0;entryDy=0;curved=0;endArrow=none;endFill=0;shadow=0;strokeWidth=3;fontSize=14;" edge="1" parent="1" source="7mthSx3CE8CJNTc02Vdj-13" target="7mthSx3CE8CJNTc02Vdj-2">
          <mxGeometry relative="1" as="geometry" />
        </mxCell>
        <mxCell id="7mthSx3CE8CJNTc02Vdj-13" value="Descrição" style="ellipse;whiteSpace=wrap;html=1;align=center;shadow=0;strokeWidth=3;container=0;fontSize=14;" vertex="1" parent="1">
          <mxGeometry x="230" width="100" height="40" as="geometry" />
        </mxCell>
        <mxCell id="7mthSx3CE8CJNTc02Vdj-63" value="Possui" style="shape=rhombus;perimeter=rhombusPerimeter;whiteSpace=wrap;html=1;align=center;shadow=0;strokeWidth=3;fontSize=14;" vertex="1" parent="1">
          <mxGeometry x="-560" y="-50" width="120" height="60" as="geometry" />
        </mxCell>
        <mxCell id="7mthSx3CE8CJNTc02Vdj-64" value="&lt;div style=&quot;font-size: 18px;&quot;&gt;1&lt;/div&gt;" style="edgeStyle=orthogonalEdgeStyle;rounded=0;orthogonalLoop=1;jettySize=auto;html=1;entryX=0;entryY=0.5;entryDx=0;entryDy=0;endArrow=none;endFill=0;strokeWidth=3;fontSize=18;" edge="1" parent="1" source="7mthSx3CE8CJNTc02Vdj-1" target="7mthSx3CE8CJNTc02Vdj-63">
          <mxGeometry relative="1" as="geometry" />
        </mxCell>
        <mxCell id="7mthSx3CE8CJNTc02Vdj-69" value="N" style="edgeStyle=orthogonalEdgeStyle;rounded=0;orthogonalLoop=1;jettySize=auto;html=1;entryX=0.5;entryY=1;entryDx=0;entryDy=0;endArrow=none;endFill=0;strokeWidth=3;exitX=0.5;exitY=0;exitDx=0;exitDy=0;fontSize=18;" edge="1" parent="1" target="7mthSx3CE8CJNTc02Vdj-70" source="7mthSx3CE8CJNTc02Vdj-3">
          <mxGeometry relative="1" as="geometry">
            <mxPoint x="-330" y="130" as="sourcePoint" />
          </mxGeometry>
        </mxCell>
        <mxCell id="7mthSx3CE8CJNTc02Vdj-70" value="Possui" style="shape=rhombus;perimeter=rhombusPerimeter;whiteSpace=wrap;html=1;align=center;shadow=0;strokeWidth=3;fontSize=14;" vertex="1" parent="1">
          <mxGeometry x="-750" y="110" width="120" height="60" as="geometry" />
        </mxCell>
        <mxCell id="7mthSx3CE8CJNTc02Vdj-71" value="&lt;div style=&quot;font-size: 18px;&quot;&gt;1&lt;/div&gt;" style="edgeStyle=orthogonalEdgeStyle;rounded=0;orthogonalLoop=1;jettySize=auto;html=1;endArrow=none;endFill=0;strokeWidth=3;exitX=0.5;exitY=1;exitDx=0;exitDy=0;entryX=0.5;entryY=0;entryDx=0;entryDy=0;fontSize=18;" edge="1" parent="1" target="7mthSx3CE8CJNTc02Vdj-70" source="7mthSx3CE8CJNTc02Vdj-1">
          <mxGeometry relative="1" as="geometry">
            <mxPoint x="-720" y="130" as="sourcePoint" />
            <mxPoint x="-530" y="90" as="targetPoint" />
          </mxGeometry>
        </mxCell>
        <mxCell id="7mthSx3CE8CJNTc02Vdj-81" value="N" style="edgeStyle=orthogonalEdgeStyle;rounded=0;orthogonalLoop=1;jettySize=auto;html=1;entryX=1;entryY=0.5;entryDx=0;entryDy=0;endArrow=none;endFill=0;strokeWidth=3;exitX=0;exitY=0.5;exitDx=0;exitDy=0;fontSize=18;" edge="1" parent="1" target="7mthSx3CE8CJNTc02Vdj-82" source="7mthSx3CE8CJNTc02Vdj-2">
          <mxGeometry relative="1" as="geometry">
            <mxPoint x="70" y="-90" as="sourcePoint" />
          </mxGeometry>
        </mxCell>
        <mxCell id="7mthSx3CE8CJNTc02Vdj-82" value="Possui" style="shape=rhombus;perimeter=rhombusPerimeter;whiteSpace=wrap;html=1;align=center;shadow=0;strokeWidth=3;fontSize=14;" vertex="1" parent="1">
          <mxGeometry x="-140" y="-50" width="120" height="60" as="geometry" />
        </mxCell>
        <mxCell id="7mthSx3CE8CJNTc02Vdj-83" value="&lt;div style=&quot;font-size: 18px;&quot;&gt;1&lt;/div&gt;" style="edgeStyle=orthogonalEdgeStyle;rounded=0;orthogonalLoop=1;jettySize=auto;html=1;entryX=0;entryY=0.5;entryDx=0;entryDy=0;endArrow=none;endFill=0;strokeWidth=3;exitX=1;exitY=0.5;exitDx=0;exitDy=0;fontSize=18;" edge="1" parent="1" target="7mthSx3CE8CJNTc02Vdj-82" source="7mthSx3CE8CJNTc02Vdj-48">
          <mxGeometry relative="1" as="geometry">
            <mxPoint x="-230" y="-90" as="sourcePoint" />
          </mxGeometry>
        </mxCell>
        <mxCell id="7mthSx3CE8CJNTc02Vdj-1" value="&lt;div style=&quot;font-size: 14px;&quot;&gt;Empresa&lt;/div&gt;" style="rounded=1;arcSize=10;whiteSpace=wrap;html=1;align=center;shadow=0;strokeWidth=3;fontSize=14;" vertex="1" parent="1">
          <mxGeometry x="-740" y="-40" width="100" height="40" as="geometry" />
        </mxCell>
        <mxCell id="7mthSx3CE8CJNTc02Vdj-10" style="edgeStyle=orthogonalEdgeStyle;rounded=1;orthogonalLoop=1;jettySize=auto;html=1;entryX=0.5;entryY=0;entryDx=0;entryDy=0;curved=0;endArrow=none;endFill=0;strokeColor=default;shadow=0;strokeWidth=3;fontSize=14;" edge="1" parent="1" source="7mthSx3CE8CJNTc02Vdj-7" target="7mthSx3CE8CJNTc02Vdj-1">
          <mxGeometry relative="1" as="geometry" />
        </mxCell>
        <mxCell id="7mthSx3CE8CJNTc02Vdj-7" value="&lt;div style=&quot;font-size: 14px;&quot;&gt;Descrição&lt;/div&gt;" style="ellipse;whiteSpace=wrap;html=1;align=center;shadow=0;strokeWidth=3;fontSize=14;" vertex="1" parent="1">
          <mxGeometry x="-860" y="-120" width="100" height="40" as="geometry" />
        </mxCell>
        <mxCell id="7mthSx3CE8CJNTc02Vdj-9" style="edgeStyle=orthogonalEdgeStyle;rounded=1;orthogonalLoop=1;jettySize=auto;html=1;exitX=1;exitY=0.5;exitDx=0;exitDy=0;endArrow=none;endFill=0;curved=0;shadow=0;strokeWidth=3;fontSize=14;" edge="1" parent="1" source="7mthSx3CE8CJNTc02Vdj-8">
          <mxGeometry relative="1" as="geometry">
            <mxPoint x="-690" y="-50" as="targetPoint" />
          </mxGeometry>
        </mxCell>
        <mxCell id="7mthSx3CE8CJNTc02Vdj-8" value="Nome" style="ellipse;whiteSpace=wrap;html=1;align=center;shadow=0;strokeWidth=3;fontSize=14;" vertex="1" parent="1">
          <mxGeometry x="-860" y="-160" width="100" height="40" as="geometry" />
        </mxCell>
        <mxCell id="7mthSx3CE8CJNTc02Vdj-86" value="n" style="edgeStyle=orthogonalEdgeStyle;rounded=0;orthogonalLoop=1;jettySize=auto;html=1;strokeWidth=3;endArrow=none;endFill=0;fontSize=18;" edge="1" parent="1" source="7mthSx3CE8CJNTc02Vdj-84" target="7mthSx3CE8CJNTc02Vdj-2">
          <mxGeometry relative="1" as="geometry" />
        </mxCell>
        <mxCell id="7mthSx3CE8CJNTc02Vdj-84" value="Respondável" style="shape=rhombus;perimeter=rhombusPerimeter;whiteSpace=wrap;html=1;align=center;strokeWidth=3;fontSize=14;" vertex="1" parent="1">
          <mxGeometry x="-360" y="50" width="120" height="60" as="geometry" />
        </mxCell>
        <mxCell id="7mthSx3CE8CJNTc02Vdj-88" value="N" style="edgeStyle=orthogonalEdgeStyle;rounded=0;orthogonalLoop=1;jettySize=auto;html=1;entryX=1;entryY=0.5;entryDx=0;entryDy=0;endArrow=none;endFill=0;strokeWidth=3;exitX=0;exitY=0.5;exitDx=0;exitDy=0;fontSize=18;" edge="1" parent="1" target="7mthSx3CE8CJNTc02Vdj-89" source="7mthSx3CE8CJNTc02Vdj-4">
          <mxGeometry relative="1" as="geometry">
            <mxPoint x="-70" y="320" as="sourcePoint" />
          </mxGeometry>
        </mxCell>
        <mxCell id="7mthSx3CE8CJNTc02Vdj-89" value="Possui" style="shape=rhombus;perimeter=rhombusPerimeter;whiteSpace=wrap;html=1;align=center;shadow=0;strokeWidth=3;fontSize=14;" vertex="1" parent="1">
          <mxGeometry x="-360" y="270" width="120" height="60" as="geometry" />
        </mxCell>
        <mxCell id="7mthSx3CE8CJNTc02Vdj-90" value="&lt;div style=&quot;font-size: 18px;&quot;&gt;1&lt;/div&gt;" style="edgeStyle=orthogonalEdgeStyle;rounded=0;orthogonalLoop=1;jettySize=auto;html=1;entryX=0;entryY=0.5;entryDx=0;entryDy=0;endArrow=none;endFill=0;strokeWidth=3;exitX=1;exitY=0.5;exitDx=0;exitDy=0;fontSize=18;" edge="1" parent="1" target="7mthSx3CE8CJNTc02Vdj-89" source="7mthSx3CE8CJNTc02Vdj-3">
          <mxGeometry x="0.4286" relative="1" as="geometry">
            <mxPoint x="-640" y="390" as="sourcePoint" />
            <mxPoint as="offset" />
          </mxGeometry>
        </mxCell>
        <mxCell id="7mthSx3CE8CJNTc02Vdj-93" value="N" style="edgeStyle=orthogonalEdgeStyle;rounded=0;orthogonalLoop=1;jettySize=auto;html=1;exitX=0.5;exitY=0;exitDx=0;exitDy=0;entryX=0.5;entryY=1;entryDx=0;entryDy=0;strokeWidth=3;endArrow=none;endFill=0;fontSize=18;" edge="1" parent="1" source="7mthSx3CE8CJNTc02Vdj-91" target="7mthSx3CE8CJNTc02Vdj-5">
          <mxGeometry relative="1" as="geometry" />
        </mxCell>
        <mxCell id="7mthSx3CE8CJNTc02Vdj-91" value="&lt;div style=&quot;font-size: 14px;&quot;&gt;Aloca-se&lt;/div&gt;" style="shape=rhombus;perimeter=rhombusPerimeter;whiteSpace=wrap;html=1;align=center;strokeWidth=3;fontSize=14;" vertex="1" parent="1">
          <mxGeometry x="60" y="-210" width="120" height="60" as="geometry" />
        </mxCell>
        <mxCell id="7mthSx3CE8CJNTc02Vdj-96" value="N" style="edgeStyle=orthogonalEdgeStyle;rounded=0;orthogonalLoop=1;jettySize=auto;html=1;entryX=0;entryY=0.5;entryDx=0;entryDy=0;strokeWidth=3;endArrow=none;endFill=0;exitX=1;exitY=0.5;exitDx=0;exitDy=0;fontSize=18;" edge="1" parent="1" source="7mthSx3CE8CJNTc02Vdj-104" target="7mthSx3CE8CJNTc02Vdj-6">
          <mxGeometry relative="1" as="geometry" />
        </mxCell>
        <mxCell id="7mthSx3CE8CJNTc02Vdj-99" value="N" style="edgeStyle=orthogonalEdgeStyle;rounded=0;orthogonalLoop=1;jettySize=auto;html=1;entryX=1;entryY=0.5;entryDx=0;entryDy=0;strokeWidth=3;endArrow=none;endFill=0;fontSize=18;" edge="1" parent="1" source="7mthSx3CE8CJNTc02Vdj-97" target="7mthSx3CE8CJNTc02Vdj-5">
          <mxGeometry relative="1" as="geometry">
            <mxPoint x="462.85714285714283" y="-330" as="targetPoint" />
            <Array as="points">
              <mxPoint x="380" y="510" />
              <mxPoint x="380" y="-320" />
            </Array>
          </mxGeometry>
        </mxCell>
        <mxCell id="7mthSx3CE8CJNTc02Vdj-97" value="&lt;div style=&quot;font-size: 14px;&quot;&gt;Confere-se&lt;/div&gt;" style="shape=rhombus;perimeter=rhombusPerimeter;whiteSpace=wrap;html=1;align=center;strokeWidth=3;fontSize=14;" vertex="1" parent="1">
          <mxGeometry x="320" y="470" width="120" height="60" as="geometry" />
        </mxCell>
        <mxCell id="7mthSx3CE8CJNTc02Vdj-103" value="N" style="edgeStyle=orthogonalEdgeStyle;rounded=0;orthogonalLoop=1;jettySize=auto;html=1;exitX=0.5;exitY=1;exitDx=0;exitDy=0;endArrow=none;endFill=0;strokeWidth=3;entryX=0.5;entryY=0;entryDx=0;entryDy=0;fontSize=18;" edge="1" parent="1" source="7mthSx3CE8CJNTc02Vdj-101" target="7mthSx3CE8CJNTc02Vdj-104">
          <mxGeometry relative="1" as="geometry">
            <mxPoint x="-460" y="460" as="targetPoint" />
            <Array as="points">
              <mxPoint x="-440" y="430" />
              <mxPoint x="-440" y="430" />
            </Array>
          </mxGeometry>
        </mxCell>
        <mxCell id="7mthSx3CE8CJNTc02Vdj-101" value="Participa" style="shape=rhombus;perimeter=rhombusPerimeter;whiteSpace=wrap;html=1;align=center;strokeWidth=3;fontSize=14;" vertex="1" parent="1">
          <mxGeometry x="-500" y="350" width="120" height="60" as="geometry" />
        </mxCell>
        <mxCell id="7mthSx3CE8CJNTc02Vdj-104" value="Realiza" style="shape=associativeEntity;whiteSpace=wrap;html=1;align=center;strokeWidth=3;fontSize=14;" vertex="1" parent="1">
          <mxGeometry x="-510" y="470" width="140" height="60" as="geometry" />
        </mxCell>
      </root>
    </mxGraphModel>
  </diagram>
</mxfile>
